<?xml version="1.0" encoding="UTF-8" standalone="no"?>
<svg
   xmlns:dc="http://purl.org/dc/elements/1.1/"
   xmlns:cc="http://creativecommons.org/ns#"
   xmlns:rdf="http://www.w3.org/1999/02/22-rdf-syntax-ns#"
   xmlns:svg="http://www.w3.org/2000/svg"
   xmlns="http://www.w3.org/2000/svg"
   id="svg2"
   preserveAspectRatio="xMidYMid meet"
   viewBox="0 0 67.000000 67.000000"
   height="67.000000pt"
   width="67.000000pt"
   version="1.0">
  <defs
     id="defs12" />
  <metadata
     id="metadata4">
Created by potrace 1.13, written by Peter Selinger 2001-2015
<rdf:RDF>
  <cc:Work
     rdf:about="">
    <dc:format>image/svg+xml</dc:format>
    <dc:type
       rdf:resource="http://purl.org/dc/dcmitype/StillImage" />
    <dc:title></dc:title>
  </cc:Work>
</rdf:RDF>
</metadata>
  <g
     style="fill:#f57f17;fill-opacity:1"
     id="g6"
     stroke="none"
     fill="#000000"
     transform="translate(0.000000,67.000000) scale(0.100000,-0.100000)">
    <path
       style="fill:#f57f17;fill-opacity:1"
       id="path8"
       d="M 32,644 C 10,629 10,627 10,347 10,107 12,61 26,42 41,20 43,20 323,20 c 240,0 286,2 305,16 22,15 22,17 22,300 0,271 -1,285 -20,304 -19,19 -33,20 -298,20 C 97,660 51,658 32,644 Z M 324.54469,423.64918 c 81,-53 28.92904,92.1821 -12.07096,4.1821 -66,-143 106.05622,-117.00276 -1.94378,2.99724 -86,96 -115.22392,-63.20173 1.77608,-3.20173 63,33 -44.76134,34.02239 12.23866,-3.97761 z" />
  </g>
  <path
     transform="matrix(0.77319448,0.06103208,-0.06022585,0.76298071,8.5745239,7.2332333)"
     d="M 49.780314,51.16081 34.718166,45.07533 20.886301,53.594768 22.019477,37.389298 9.6427283,26.867064 25.405217,22.937012 31.587831,7.9144755 40.196409,21.69104 56.394223,22.928836 45.952128,35.373273 Z"
     id="path3367"
     style="fill:#ffffff;fill-opacity:1;stroke:#ffffff;stroke-width:4;stroke-miterlimit:4;stroke-dasharray:none;stroke-opacity:1" />
</svg>
